{
  "accessors": [
    {
      "bufferView": 2,
      "componentType": 5126,
      "count": 1466,
      "max": [
        1.1018720865249634,
        1.2488322257995605,
        -0.011342673562467098
      ],
      "min": [
        -1.1018720865249634,
        -1.2488322257995605,
        -0.9869218468666077
      ],
      "type": "VEC3"
    },
    {
      "bufferView": 2,
      "byteOffset": 17592,
      "componentType": 5126,
      "count": 1466,
      "max": [
        0.9993758201599121,
        0.9974063038825989,
        1.0
      ],
      "min": [
        -0.9993758201599121,
        -0.9974063038825989,
        -1.0
      ],
      "type": "VEC3"
    },
    {
      "bufferView": 1,
      "componentType": 5126,
      "count": 1466,
      "max": [
        0.5000001192092896,
        1.000000238418579
      ],
      "min": [
        0.1250000149011612,
        0.0
      ],
      "type": "VEC2"
    },
    {
      "bufferView": 0,
      "componentType": 5125,
      "count": 6720,
      "type": "SCALAR"
    },
    {
      "bufferView": 2,
      "byteOffset": 35184,
      "componentType": 5126,
      "count": 2281,
      "max": [
        1.066282033920288,
        1.2137736082077026,
        0.9833082556724548
      ],
      "min": [
        -1.066282033920288,
        -1.2137736082077026,
        -0.9471298456192017
      ],
      "type": "VEC3"
    },
    {
      "bufferView": 2,
      "byteOffset": 62556,
      "componentType": 5126,
      "count": 2281,
      "max": [
        0.9999920129776001,
        0.9999343752861023,
        1.0
      ],
      "min": [
        -0.9999920129776001,
        -0.9999343752861023,
        -1.0
      ],
      "type": "VEC3"
    },
    {
      "bufferView": 1,
      "byteOffset": 11728,
      "componentType": 5126,
      "count": 2281,
      "max": [
        0.6250001788139343,
        1.000000238418579
      ],
      "min": [
        0.1250000149011612,
        0.0
      ],
      "type": "VEC2"
    },
    {
      "bufferView": 0,
      "byteOffset": 26880,
      "componentType": 5125,
      "count": 11328,
      "type": "SCALAR"
    },
    {
      "bufferView": 2,
      "byteOffset": 89928,
      "componentType": 5126,
      "count": 2452,
      "max": [
        5.181139945983887,
        0.9867957234382629,
        10.008071899414063
      ],
      "min": [
        -0.9867956042289734,
        -0.9867956042289734,
        -0.9685839414596558
      ],
      "type": "VEC3"
    },
    {
      "bufferView": 2,
      "byteOffset": 119352,
      "componentType": 5126,
      "count": 2452,
      "max": [
        0.9999945163726807,
        0.9999945163726807,
        1.0
      ],
      "min": [
        -0.9999945163726807,
        -0.9999945163726807,
        -1.0
      ],
      "type": "VEC3"
    },
    {
      "bufferView": 1,
      "byteOffset": 29976,
      "componentType": 5126,
      "count": 2452,
      "max": [
        1.0,
        1.0000001192092896
      ],
      "min": [
        0.0,
        0.010045445524156094
      ],
      "type": "VEC2"
    },
    {
      "bufferView": 0,
      "byteOffset": 72192,
      "componentType": 5125,
      "count": 8448,
      "type": "SCALAR"
    },
    {
      "bufferView": 2,
      "byteOffset": 148776,
      "componentType": 5126,
      "count": 11561,
      "max": [
        0.9865362644195557,
        0.98653644323349,
        0.92325758934021
      ],
      "min": [
        -0.9865362644195557,
        -0.9865362644195557,
        -0.9232621192932129
      ],
      "type": "VEC3"
    },
    {
      "bufferView": 2,
      "byteOffset": 287508,
      "componentType": 5126,
      "count": 11561,
      "max": [
        1.0,
        1.0,
        1.0
      ],
      "min": [
        -1.0,
        -1.0,
        -1.0
      ],
      "type": "VEC3"
    },
    {
      "bufferView": 1,
      "byteOffset": 49592,
      "componentType": 5126,
      "count": 11561,
      "max": [
        1.0000001192092896,
        1.0000001192092896
      ],
      "min": [
        0.0,
        0.0
      ],
      "type": "VEC2"
    },
    {
      "bufferView": 0,
      "byteOffset": 105984,
      "componentType": 5125,
      "count": 61632,
      "type": "SCALAR"
    },
    {
      "bufferView": 2,
      "byteOffset": 426240,
      "componentType": 5126,
      "count": 10860,
      "max": [
        0.9935954809188843,
        0.9935954213142395,
        16.155553817749023
      ],
      "min": [
        -0.9935952425003052,
        -5.951945781707764,
        -1.4351314306259155
      ],
      "type": "VEC3"
    },
    {
      "bufferView": 2,
      "byteOffset": 556560,
      "componentType": 5126,
      "count": 10860,
      "max": [
        0.9999995827674866,
        0.9999995827674866,
        1.0
      ],
      "min": [
        -0.9999995827674866,
        -0.9999995827674866,
        -1.0
      ],
      "type": "VEC3"
    },
    {
      "bufferView": 1,
      "byteOffset": 142080,
      "componentType": 5126,
      "count": 10860,
      "max": [
        1.0000001192092896,
        1.0000001192092896
      ],
      "min": [
        0.0,
        0.0
      ],
      "type": "VEC2"
    },
    {
      "bufferView": 0,
      "byteOffset": 352512,
      "componentType": 5125,
      "count": 46848,
      "type": "SCALAR"
    },
    {
      "bufferView": 2,
      "byteOffset": 686880,
      "componentType": 5126,
      "count": 27168,
      "max": [
        1.4842342138290405,
        2.3111908435821533,
        2.460949659347534
      ],
      "min": [
        -1.4842342138290405,
        -2.0364251136779785,
        -1.4417030811309814
      ],
      "type": "VEC3"
    },
    {
      "bufferView": 2,
      "byteOffset": 1012896,
      "componentType": 5126,
      "count": 27168,
      "max": [
        0.9998798966407776,
        0.9977198839187622,
        0.9991453289985657
      ],
      "min": [
        -0.9998798966407776,
        -0.9983000159263611,
        -0.9986753463745117
      ],
      "type": "VEC3"
    },
    {
      "bufferView": 1,
      "byteOffset": 228960,
      "componentType": 5126,
      "count": 27168,
      "max": [
        0.7500001192092896,
        0.9998703002929688
      ],
      "min": [
        0.00012984086060896516,
        0.00012984086060896516
      ],
      "type": "VEC2"
    },
    {
      "bufferView": 0,
      "byteOffset": 539904,
      "componentType": 5125,
      "count": 40752,
      "type": "SCALAR"
    },
    {
      "bufferView": 2,
      "byteOffset": 1338912,
      "componentType": 5126,
      "count": 4798,
      "max": [
        0.9872310161590576,
        1.4990841150283813,
        0.9975767135620117
      ],
      "min": [
        -2.1765451431274414,
        -0.9872307181358337,
        -3.829629421234131
      ],
      "type": "VEC3"
    },
    {
      "bufferView": 2,
      "byteOffset": 1396488,
      "componentType": 5126,
      "count": 4798,
      "max": [
        1.0,
        1.0,
        1.0
      ],
      "min": [
        -1.0,
        -1.0,
        -1.0
      ],
      "type": "VEC3"
    },
    {
      "bufferView": 1,
      "byteOffset": 446304,
      "componentType": 5126,
      "count": 4798,
      "max": [
        1.0000001192092896,
        1.0000001192092896
      ],
      "min": [
        0.0,
        0.0
      ],
      "type": "VEC2"
    },
    {
      "bufferView": 0,
      "byteOffset": 702912,
      "componentType": 5125,
      "count": 23808,
      "type": "SCALAR"
    },
    {
      "bufferView": 2,
      "byteOffset": 1454064,
      "componentType": 5126,
      "count": 34446,
      "max": [
        1.0817947387695313,
        1.0264443159103394,
        1.012370228767395
      ],
      "min": [
        -1.0817947387695313,
        -0.7881714701652527,
        0.001671810750849545
      ],
      "type": "VEC3"
    },
    {
      "bufferView": 2,
      "byteOffset": 1867416,
      "componentType": 5126,
      "count": 34446,
      "max": [
        0.9982204437255859,
        0.9589824080467224,
        0.9986773729324341
      ],
      "min": [
        -0.9982204437255859,
        -0.957689642906189,
        -0.9880073070526123
      ],
      "type": "VEC3"
    },
    {
      "bufferView": 0,
      "byteOffset": 798144,
      "componentType": 5125,
      "count": 51672,
      "type": "SCALAR"
    },
    {
      "bufferView": 2,
      "byteOffset": 2280768,
      "componentType": 5126,
      "count": 57227,
      "max": [
        1.9422612190246582,
        2.943528175354004,
        2.4791202545166016
      ],
      "min": [
        -1.9422597885131836,
        -2.617349147796631,
        -1.9225256443023682
      ],
      "type": "VEC3"
    },
    {
      "bufferView": 2,
      "byteOffset": 2967492,
      "componentType": 5126,
      "count": 57227,
      "max": [
        1.0,
        1.0,
        1.0
      ],
      "min": [
        -1.0,
        -1.0,
        -1.0
      ],
      "type": "VEC3"
    },
    {
      "bufferView": 1,
      "byteOffset": 484688,
      "componentType": 5126,
      "count": 57227,
      "max": [
        0.9815857410430908,
        0.9745333194732666
      ],
      "min": [
        0.043732523918151855,
        0.03673213720321655
      ],
      "type": "VEC2"
    },
    {
      "bufferView": 0,
      "byteOffset": 1004832,
      "componentType": 5125,
      "count": 318720,
      "type": "SCALAR"
    }
  ],
  "asset": {
    "extras": {
      "author": "tube (https://sketchfab.com/blendertube00)",
      "license": "CC-BY-4.0 (http://creativecommons.org/licenses/by/4.0/)",
      "source": "https://sketchfab.com/3d-models/cartoon-frog-0dee3943e73141d2a991ba9387dc0506",
      "title": "Cartoon Frog"
    },
    "generator": "Sketchfab-16.59.0",
    "version": "2.0"
  },
  "bufferViews": [
    {
      "buffer": 0,
      "byteLength": 2279712,
      "name": "floatBufferViews",
      "target": 34963
    },
    {
      "buffer": 0,
      "byteLength": 942504,
      "byteOffset": 2279712,
      "byteStride": 8,
      "name": "floatBufferViews",
      "target": 34962
    },
    {
      "buffer": 0,
      "byteLength": 3654216,
      "byteOffset": 3222216,
      "byteStride": 12,
      "name": "floatBufferViews",
      "target": 34962
    }
  ],
  "buffers": [
    {
      "byteLength": 6876432,
      "uri": "scene.bin"
    }
  ],
  "extensionsUsed": [
    "KHR_materials_unlit"
  ],
  "images": [
    {
      "uri": "textures/paint_texture_baseColorBlue.png"
    }
  ],
  "materials": [
    {
      "extensions": {
        "KHR_materials_unlit": {}
      },
      "name": "outline",
      "pbrMetallicRoughness": {
        "baseColorFactor": [
          0.0,
          0.0,
          0.0,
          1.0
        ],
        "metallicFactor": 0.0
      }
    },
    {
      "doubleSided": true,
      "extensions": {
        "KHR_materials_unlit": {}
      },
      "name": "lineblack",
      "pbrMetallicRoughness": {
        "baseColorFactor": [
          0.0,
          0.0,
          0.0,
          1.0
        ],
        "metallicFactor": 0.0
      }
    },
    {
      "doubleSided": true,
      "extensions": {
        "KHR_materials_unlit": {}
      },
      "name": "paint_texture",
      "pbrMetallicRoughness": {
        "baseColorTexture": {
          "index": 0
        },
        "metallicFactor": 0.0
      }
    }
  ],
  "meshes": [
    {
      "name": "body_cover_outline_0",
      "primitives": [
        {
          "attributes": {
            "NORMAL": 1,
            "POSITION": 0,
            "TEXCOORD_0": 2
          },
          "indices": 3,
          "material": 0,
          "mode": 4
        }
      ]
    },
    {
      "name": "body.004_outline_0",
      "primitives": [
        {
          "attributes": {
            "NORMAL": 5,
            "POSITION": 4,
            "TEXCOORD_0": 6
          },
          "indices": 7,
          "material": 0,
          "mode": 4
        }
      ]
    },
    {
      "name": "head lighht.001_outline_0",
      "primitives": [
        {
          "attributes": {
            "NORMAL": 9,
            "POSITION": 8,
            "TEXCOORD_0": 10
          },
          "indices": 11,
          "material": 0,
          "mode": 4
        }
      ]
    },
    {
      "name": "handle.001_outline_0",
      "primitives": [
        {
          "attributes": {
            "NORMAL": 13,
            "POSITION": 12,
            "TEXCOORD_0": 14
          },
          "indices": 15,
          "material": 0,
          "mode": 4
        }
      ]
    },
    {
      "name": "tire.001_outline_0",
      "primitives": [
        {
          "attributes": {
            "NORMAL": 17,
            "POSITION": 16,
            "TEXCOORD_0": 18
          },
          "indices": 19,
          "material": 0,
          "mode": 4
        }
      ]
    },
    {
      "name": "frog.001_outline_0",
      "primitives": [
        {
          "attributes": {
            "NORMAL": 21,
            "POSITION": 20,
            "TEXCOORD_0": 22
          },
          "indices": 23,
          "material": 0,
          "mode": 4
        }
      ]
    },
    {
      "name": "eyes.001_outline_0",
      "primitives": [
        {
          "attributes": {
            "NORMAL": 25,
            "POSITION": 24,
            "TEXCOORD_0": 26
          },
          "indices": 27,
          "material": 0,
          "mode": 4
        }
      ]
    },
    {
      "name": "body.001_lineblack_0",
      "primitives": [
        {
          "attributes": {
            "NORMAL": 29,
            "POSITION": 28
          },
          "indices": 30,
          "material": 1,
          "mode": 4
        }
      ]
    },
    {
      "name": "frog_paint_texture_0",
      "primitives": [
        {
          "attributes": {
            "NORMAL": 32,
            "POSITION": 31,
            "TEXCOORD_0": 33
          },
          "indices": 34,
          "material": 2,
          "mode": 4
        }
      ]
    }
  ],
  "nodes": [
    {
      "children": [
        1
      ],
      "matrix": [
        0.34572967886924744,
        0.0,
        0.0,
        0.0,
        0.0,
        7.676740995537999e-17,
        -0.34572967886924744,
        0.0,
        0.0,
        0.34572967886924744,
        7.676740995537999e-17,
        0.0,
        0.0,
        0.0,
        0.0,
        1.0
      ],
      "name": "Sketchfab_model"
    },
    {
      "children": [
        2
      ],
      "matrix": [
        0.009999999776482582,
        0.0,
        0.0,
        0.0,
        0.0,
        0.0,
        0.009999999776482582,
        0.0,
        0.0,
        -0.009999999776482582,
        0.0,
        0.0,
        0.0,
        0.0,
        0.0,
        1.0
      ],
      "name": "7184afdf57354886ade9b7116addf134.fbx"
    },
    {
      "children": [
        3,
        5,
        7,
        9,
        11,
        13,
        15,
        17,
        19
      ],
      "name": "RootNode"
    },
    {
      "children": [
        4
      ],
      "matrix": [
        102.45185852050781,
        0.0,
        0.0,
        0.0,
        0.0,
        -2.1815933150641895e-05,
        -133.9052429199201,
        0.0,
        0.0,
        63.27944946288979,
        -1.0309530898035202e-05,
        0.0,
        0.0,
        63.6917724609375,
        0.0,
        1.0
      ],
      "name": "body_cover"
    },
    {
      "mesh": 0,
      "name": "body_cover_outline_0"
    },
    {
      "children": [
        6
      ],
      "matrix": [
        103.03897857666016,
        0.0,
        0.0,
        0.0,
        0.0,
        1.0167500145839567e-05,
        -134.67262268066366,
        0.0,
        0.0,
        63.64208602905255,
        4.804843821273811e-06,
        0.0,
        0.0,
        63.6917724609375,
        0.0,
        1.0
      ],
      "name": "body.004"
    },
    {
      "mesh": 1,
      "name": "body.004_outline_0"
    },
    {
      "children": [
        8
      ],
      "matrix": [
        16.886518490501704,
        -7.116603488988418e-16,
        -7.3845872648007935,
        0.0,
        3.2279062168608326e-07,
        18.430591583251935,
        7.381333029305471e-07,
        0.0,
        2.1134437940203648,
        -2.3056763315363483e-07,
        4.83286423825932,
        0.0,
        -45.10538101196289,
        69.95259857177734,
        -161.93942260742188,
        1.0
      ],
      "name": "head lighht.001"
    },
    {
      "mesh": 2,
      "name": "head lighht.001_outline_0"
    },
    {
      "children": [
        10
      ],
      "matrix": [
        43.00821304321289,
        0.0,
        0.0,
        0.0,
        0.0,
        40.76981735229488,
        1.782105316665549e-06,
        0.0,
        0.0,
        -4.555467043794616e-07,
        10.421693801879872,
        0.0,
        0.0,
        118.01641845703125,
        -120.6135025024414,
        1.0
      ],
      "name": "handle.001"
    },
    {
      "mesh": 3,
      "name": "handle.001_outline_0"
    },
    {
      "children": [
        12
      ],
      "matrix": [
        2.2160236581887466e-06,
        -29.352123260497844,
        2.6242843205182e-06,
        0.0,
        -1.2830219118658786e-06,
        -2.624284418280409e-06,
        -29.352123260497905,
        0.0,
        13.416893959045359,
        1.0129472616562139e-06,
        -5.864710852790138e-07,
        0.0,
        -98.75113677978516,
        31.489646911621094,
        -72.76905822753906,
        1.0
      ],
      "name": "tire.001"
    },
    {
      "mesh": 4,
      "name": "tire.001_outline_0"
    },
    {
      "children": [
        14
      ],
      "matrix": [
        61.85494613647461,
        0.0,
        0.0,
        0.0,
        0.0,
        -1.007744984829958e-05,
        -61.85494613647379,
        0.0,
        0.0,
        61.85494613647379,
        -1.007744984829958e-05,
        0.0,
        8.149072527885437e-08,
        118.0164566040039,
        6.2769293785095215,
        1.0
      ],
      "name": "frog.001"
    },
    {
      "mesh": 5,
      "name": "frog.001_outline_0"
    },
    {
      "children": [
        16
      ],
      "matrix": [
        18.87184503404488,
        -27.487630655538805,
        1.7721638043361088e-07,
        0.0,
        -7.392865453472314,
        -5.075629057845471,
        -32.1138663642858,
        0.0,
        20.049492497965204,
        13.765133814947427,
        -6.79114470833939,
        0.0,
        40.46617889404297,
        238.37298583984375,
        -40.24897384643555,
        1.0
      ],
      "name": "eyes.001"
    },
    {
      "mesh": 6,
      "name": "eyes.001_outline_0"
    },
    {
      "children": [
        18
      ],
      "matrix": [
        100.0,
        0.0,
        0.0,
        0.0,
        0.0,
        -2.1293839196125982e-05,
        -130.70065307617014,
        0.0,
        0.0,
        61.765056610106605,
        -1.0062804985593628e-05,
        0.0,
        0.0,
        63.6917724609375,
        0.0,
        1.0
      ],
      "name": "body.001"
    },
    {
      "mesh": 7,
      "name": "body.001_lineblack_0"
    },
    {
      "children": [
        20
      ],
      "matrix": [
        59.96382141113281,
        0.0,
        0.0,
        0.0,
        0.0,
        -9.769346523232205e-06,
        -59.963821411132024,
        0.0,
        0.0,
        59.963821411132024,
        -9.769346523232205e-06,
        0.0,
        8.149072527885437e-08,
        118.0164566040039,
        6.2769293785095215,
        1.0
      ],
      "name": "frog"
    },
    {
      "mesh": 8,
      "name": "frog_paint_texture_0"
    }
  ],
  "samplers": [
    {
      "magFilter": 9729,
      "minFilter": 9987,
      "wrapS": 10497,
      "wrapT": 10497
    }
  ],
  "scene": 0,
  "scenes": [
    {
      "name": "Sketchfab_Scene",
      "nodes": [
        0
      ]
    }
  ],
  "textures": [
    {
      "sampler": 0,
      "source": 0
    }
  ]
}
